<mxfile host="app.diagrams.net" agent="Mozilla/5.0 (Windows NT 10.0; Win64; x64) AppleWebKit/537.36 (KHTML, like Gecko) Chrome/131.0.0.0 Safari/537.36" version="26.0.9">
  <diagram name="Page-1" id="8xf2X9Sttmiccnm4HsCQ">
    <mxGraphModel dx="1416" dy="1897" grid="1" gridSize="10" guides="1" tooltips="1" connect="1" arrows="1" fold="1" page="1" pageScale="1" pageWidth="827" pageHeight="1169" math="0" shadow="0">
      <root>
        <mxCell id="0" />
        <mxCell id="1" parent="0" />
        <mxCell id="fE91X5YR5c-H2x0cvexk-1" value="us-east-1" style="points=[[0,0],[0.25,0],[0.5,0],[0.75,0],[1,0],[1,0.25],[1,0.5],[1,0.75],[1,1],[0.75,1],[0.5,1],[0.25,1],[0,1],[0,0.75],[0,0.5],[0,0.25]];outlineConnect=0;gradientColor=none;html=1;whiteSpace=wrap;fontSize=12;fontStyle=0;container=1;pointerEvents=0;collapsible=0;recursiveResize=0;shape=mxgraph.aws4.group;grIcon=mxgraph.aws4.group_region;strokeColor=#00A4A6;fillColor=none;verticalAlign=top;align=left;spacingLeft=30;fontColor=#147EBA;dashed=1;" vertex="1" parent="1">
          <mxGeometry x="110" y="50" width="570" height="560" as="geometry" />
        </mxCell>
        <mxCell id="fE91X5YR5c-H2x0cvexk-2" value="us-eat-1a" style="sketch=0;outlineConnect=0;gradientColor=none;html=1;whiteSpace=wrap;fontSize=12;fontStyle=0;shape=mxgraph.aws4.group;grIcon=mxgraph.aws4.group_availability_zone;strokeColor=#545B64;fillColor=none;verticalAlign=top;align=left;spacingLeft=30;fontColor=#545B64;dashed=1;" vertex="1" parent="fE91X5YR5c-H2x0cvexk-1">
          <mxGeometry x="20" y="50" width="220" height="480" as="geometry" />
        </mxCell>
        <mxCell id="fE91X5YR5c-H2x0cvexk-8" value="VPC" style="points=[[0,0],[0.25,0],[0.5,0],[0.75,0],[1,0],[1,0.25],[1,0.5],[1,0.75],[1,1],[0.75,1],[0.5,1],[0.25,1],[0,1],[0,0.75],[0,0.5],[0,0.25]];outlineConnect=0;gradientColor=none;html=1;whiteSpace=wrap;fontSize=12;fontStyle=0;container=1;pointerEvents=0;collapsible=0;recursiveResize=0;shape=mxgraph.aws4.group;grIcon=mxgraph.aws4.group_vpc2;strokeColor=#8C4FFF;fillColor=none;verticalAlign=top;align=left;spacingLeft=30;fontColor=#AAB7B8;dashed=0;" vertex="1" parent="fE91X5YR5c-H2x0cvexk-1">
          <mxGeometry x="5" y="30" width="560" height="520" as="geometry" />
        </mxCell>
        <mxCell id="fE91X5YR5c-H2x0cvexk-3" value="us-eat-1b" style="sketch=0;outlineConnect=0;gradientColor=none;html=1;whiteSpace=wrap;fontSize=12;fontStyle=0;shape=mxgraph.aws4.group;grIcon=mxgraph.aws4.group_availability_zone;strokeColor=#545B64;fillColor=none;verticalAlign=top;align=left;spacingLeft=30;fontColor=#545B64;dashed=1;" vertex="1" parent="fE91X5YR5c-H2x0cvexk-8">
          <mxGeometry x="310" y="10" width="220" height="480" as="geometry" />
        </mxCell>
        <mxCell id="fE91X5YR5c-H2x0cvexk-12" value="Public subnet" style="points=[[0,0],[0.25,0],[0.5,0],[0.75,0],[1,0],[1,0.25],[1,0.5],[1,0.75],[1,1],[0.75,1],[0.5,1],[0.25,1],[0,1],[0,0.75],[0,0.5],[0,0.25]];outlineConnect=0;gradientColor=none;html=1;whiteSpace=wrap;fontSize=12;fontStyle=0;container=1;pointerEvents=0;collapsible=0;recursiveResize=0;shape=mxgraph.aws4.group;grIcon=mxgraph.aws4.group_security_group;grStroke=0;strokeColor=#7AA116;fillColor=#F2F6E8;verticalAlign=top;align=left;spacingLeft=30;fontColor=#248814;dashed=0;" vertex="1" parent="fE91X5YR5c-H2x0cvexk-8">
          <mxGeometry x="30" y="50" width="180" height="150" as="geometry" />
        </mxCell>
        <mxCell id="fE91X5YR5c-H2x0cvexk-20" value="Public subnet" style="points=[[0,0],[0.25,0],[0.5,0],[0.75,0],[1,0],[1,0.25],[1,0.5],[1,0.75],[1,1],[0.75,1],[0.5,1],[0.25,1],[0,1],[0,0.75],[0,0.5],[0,0.25]];outlineConnect=0;gradientColor=none;html=1;whiteSpace=wrap;fontSize=12;fontStyle=0;container=1;pointerEvents=0;collapsible=0;recursiveResize=0;shape=mxgraph.aws4.group;grIcon=mxgraph.aws4.group_security_group;grStroke=0;strokeColor=#7AA116;fillColor=#F2F6E8;verticalAlign=top;align=left;spacingLeft=30;fontColor=#248814;dashed=0;" vertex="1" parent="fE91X5YR5c-H2x0cvexk-8">
          <mxGeometry x="330" y="50" width="180" height="150" as="geometry" />
        </mxCell>
        <mxCell id="fE91X5YR5c-H2x0cvexk-22" value="Private subnet" style="points=[[0,0],[0.25,0],[0.5,0],[0.75,0],[1,0],[1,0.25],[1,0.5],[1,0.75],[1,1],[0.75,1],[0.5,1],[0.25,1],[0,1],[0,0.75],[0,0.5],[0,0.25]];outlineConnect=0;gradientColor=none;html=1;whiteSpace=wrap;fontSize=12;fontStyle=0;container=1;pointerEvents=0;collapsible=0;recursiveResize=0;shape=mxgraph.aws4.group;grIcon=mxgraph.aws4.group_security_group;grStroke=0;strokeColor=#00A4A6;fillColor=#E6F6F7;verticalAlign=top;align=left;spacingLeft=30;fontColor=#147EBA;dashed=0;" vertex="1" parent="fE91X5YR5c-H2x0cvexk-8">
          <mxGeometry x="330" y="270" width="190" height="170" as="geometry" />
        </mxCell>
        <mxCell id="fE91X5YR5c-H2x0cvexk-25" value="ec2" style="text;html=1;align=center;verticalAlign=middle;whiteSpace=wrap;rounded=0;" vertex="1" parent="fE91X5YR5c-H2x0cvexk-22">
          <mxGeometry x="114.5" y="124" width="48.5" height="16" as="geometry" />
        </mxCell>
        <mxCell id="fE91X5YR5c-H2x0cvexk-24" value="" style="sketch=0;points=[[0,0,0],[0.25,0,0],[0.5,0,0],[0.75,0,0],[1,0,0],[0,1,0],[0.25,1,0],[0.5,1,0],[0.75,1,0],[1,1,0],[0,0.25,0],[0,0.5,0],[0,0.75,0],[1,0.25,0],[1,0.5,0],[1,0.75,0]];outlineConnect=0;fontColor=#232F3E;fillColor=#ED7100;strokeColor=#ffffff;dashed=0;verticalLabelPosition=bottom;verticalAlign=top;align=center;html=1;fontSize=12;fontStyle=0;aspect=fixed;shape=mxgraph.aws4.resourceIcon;resIcon=mxgraph.aws4.ec2;" vertex="1" parent="fE91X5YR5c-H2x0cvexk-8">
          <mxGeometry x="450" y="351" width="43" height="43" as="geometry" />
        </mxCell>
        <mxCell id="fE91X5YR5c-H2x0cvexk-27" value="" style="points=[];aspect=fixed;html=1;align=center;shadow=0;dashed=0;fillColor=#FF6A00;strokeColor=none;shape=mxgraph.alibaba_cloud.alb_application_load_balancer_02;" vertex="1" parent="fE91X5YR5c-H2x0cvexk-8">
          <mxGeometry x="252.5" y="115" width="45" height="45" as="geometry" />
        </mxCell>
        <mxCell id="fE91X5YR5c-H2x0cvexk-51" style="edgeStyle=orthogonalEdgeStyle;rounded=0;orthogonalLoop=1;jettySize=auto;html=1;exitX=0.878;exitY=0.733;exitDx=0;exitDy=0;exitPerimeter=0;" edge="1" parent="fE91X5YR5c-H2x0cvexk-8" source="fE91X5YR5c-H2x0cvexk-27" target="fE91X5YR5c-H2x0cvexk-24">
          <mxGeometry relative="1" as="geometry">
            <mxPoint x="297.5" y="165" as="sourcePoint" />
          </mxGeometry>
        </mxCell>
        <mxCell id="fE91X5YR5c-H2x0cvexk-55" value="Alb" style="text;html=1;align=center;verticalAlign=middle;whiteSpace=wrap;rounded=0;" vertex="1" parent="fE91X5YR5c-H2x0cvexk-8">
          <mxGeometry x="245" y="160" width="60" height="20" as="geometry" />
        </mxCell>
        <mxCell id="fE91X5YR5c-H2x0cvexk-11" value="iGW" style="text;html=1;align=center;verticalAlign=middle;whiteSpace=wrap;rounded=0;" vertex="1" parent="fE91X5YR5c-H2x0cvexk-1">
          <mxGeometry x="310" width="60" height="20" as="geometry" />
        </mxCell>
        <mxCell id="fE91X5YR5c-H2x0cvexk-21" value="Private subnet" style="points=[[0,0],[0.25,0],[0.5,0],[0.75,0],[1,0],[1,0.25],[1,0.5],[1,0.75],[1,1],[0.75,1],[0.5,1],[0.25,1],[0,1],[0,0.75],[0,0.5],[0,0.25]];outlineConnect=0;gradientColor=none;html=1;whiteSpace=wrap;fontSize=12;fontStyle=0;container=1;pointerEvents=0;collapsible=0;recursiveResize=0;shape=mxgraph.aws4.group;grIcon=mxgraph.aws4.group_security_group;grStroke=0;strokeColor=#00A4A6;fillColor=#E6F6F7;verticalAlign=top;align=left;spacingLeft=30;fontColor=#147EBA;dashed=0;" vertex="1" parent="fE91X5YR5c-H2x0cvexk-1">
          <mxGeometry x="40" y="300" width="190" height="170" as="geometry" />
        </mxCell>
        <mxCell id="fE91X5YR5c-H2x0cvexk-26" value="ec2&lt;div&gt;&lt;br&gt;&lt;/div&gt;" style="text;html=1;align=center;verticalAlign=middle;whiteSpace=wrap;rounded=0;" vertex="1" parent="fE91X5YR5c-H2x0cvexk-21">
          <mxGeometry x="120" y="110" width="40" height="20" as="geometry" />
        </mxCell>
        <mxCell id="fE91X5YR5c-H2x0cvexk-23" value="" style="sketch=0;points=[[0,0,0],[0.25,0,0],[0.5,0,0],[0.75,0,0],[1,0,0],[0,1,0],[0.25,1,0],[0.5,1,0],[0.75,1,0],[1,1,0],[0,0.25,0],[0,0.5,0],[0,0.75,0],[1,0.25,0],[1,0.5,0],[1,0.75,0]];outlineConnect=0;fontColor=#232F3E;fillColor=#ED7100;strokeColor=#ffffff;dashed=0;verticalLabelPosition=bottom;verticalAlign=top;align=center;html=1;fontSize=12;fontStyle=0;aspect=fixed;shape=mxgraph.aws4.resourceIcon;resIcon=mxgraph.aws4.ec2;" vertex="1" parent="fE91X5YR5c-H2x0cvexk-1">
          <mxGeometry x="160" y="365" width="40" height="40" as="geometry" />
        </mxCell>
        <mxCell id="fE91X5YR5c-H2x0cvexk-54" style="edgeStyle=orthogonalEdgeStyle;rounded=0;orthogonalLoop=1;jettySize=auto;html=1;" edge="1" parent="fE91X5YR5c-H2x0cvexk-1" source="fE91X5YR5c-H2x0cvexk-27" target="fE91X5YR5c-H2x0cvexk-23">
          <mxGeometry relative="1" as="geometry" />
        </mxCell>
        <mxCell id="fE91X5YR5c-H2x0cvexk-40" value="" style="edgeStyle=orthogonalEdgeStyle;rounded=0;orthogonalLoop=1;jettySize=auto;html=1;" edge="1" parent="1" source="fE91X5YR5c-H2x0cvexk-10" target="fE91X5YR5c-H2x0cvexk-8">
          <mxGeometry relative="1" as="geometry">
            <mxPoint x="383" y="190" as="targetPoint" />
            <Array as="points">
              <mxPoint x="395" y="180" />
              <mxPoint x="395" y="180" />
            </Array>
          </mxGeometry>
        </mxCell>
        <mxCell id="fE91X5YR5c-H2x0cvexk-10" value="" style="sketch=0;outlineConnect=0;fontColor=#232F3E;gradientColor=none;fillColor=#8C4FFF;strokeColor=none;dashed=0;verticalLabelPosition=bottom;verticalAlign=top;align=center;html=1;fontSize=12;fontStyle=0;aspect=fixed;pointerEvents=1;shape=mxgraph.aws4.internet_gateway;" vertex="1" parent="1">
          <mxGeometry x="360" y="50" width="60" height="60" as="geometry" />
        </mxCell>
        <mxCell id="fE91X5YR5c-H2x0cvexk-32" style="edgeStyle=orthogonalEdgeStyle;rounded=0;orthogonalLoop=1;jettySize=auto;html=1;exitX=0.98;exitY=0.51;exitDx=0;exitDy=0;exitPerimeter=0;" edge="1" parent="1" source="fE91X5YR5c-H2x0cvexk-29">
          <mxGeometry relative="1" as="geometry">
            <mxPoint x="350" y="-70" as="targetPoint" />
          </mxGeometry>
        </mxCell>
        <mxCell id="fE91X5YR5c-H2x0cvexk-29" value="" style="points=[[0.35,0,0],[0.98,0.51,0],[1,0.71,0],[0.67,1,0],[0,0.795,0],[0,0.65,0]];verticalLabelPosition=bottom;sketch=0;html=1;verticalAlign=top;aspect=fixed;align=center;pointerEvents=1;shape=mxgraph.cisco19.user;fillColor=#005073;strokeColor=none;" vertex="1" parent="1">
          <mxGeometry x="150" y="-90" width="40" height="40" as="geometry" />
        </mxCell>
        <mxCell id="fE91X5YR5c-H2x0cvexk-30" value="client" style="text;html=1;align=center;verticalAlign=middle;whiteSpace=wrap;rounded=0;" vertex="1" parent="1">
          <mxGeometry x="140" y="-50" width="50" height="20" as="geometry" />
        </mxCell>
        <mxCell id="fE91X5YR5c-H2x0cvexk-33" value="" style="edgeStyle=orthogonalEdgeStyle;rounded=0;orthogonalLoop=1;jettySize=auto;html=1;" edge="1" parent="1" source="fE91X5YR5c-H2x0cvexk-31" target="fE91X5YR5c-H2x0cvexk-10">
          <mxGeometry relative="1" as="geometry" />
        </mxCell>
        <mxCell id="fE91X5YR5c-H2x0cvexk-31" value="Amazon Route 53" style="sketch=0;outlineConnect=0;fontColor=#232F3E;gradientColor=none;strokeColor=#ffffff;fillColor=#232F3E;dashed=0;verticalLabelPosition=middle;verticalAlign=bottom;align=center;html=1;whiteSpace=wrap;fontSize=10;fontStyle=1;spacing=3;shape=mxgraph.aws4.productIcon;prIcon=mxgraph.aws4.route_53;" vertex="1" parent="1">
          <mxGeometry x="360" y="-80" width="60" height="90" as="geometry" />
        </mxCell>
        <mxCell id="fE91X5YR5c-H2x0cvexk-44" style="edgeStyle=orthogonalEdgeStyle;rounded=0;orthogonalLoop=1;jettySize=auto;html=1;entryX=0.578;entryY=0.2;entryDx=0;entryDy=0;entryPerimeter=0;" edge="1" parent="1" source="fE91X5YR5c-H2x0cvexk-10" target="fE91X5YR5c-H2x0cvexk-27">
          <mxGeometry relative="1" as="geometry" />
        </mxCell>
      </root>
    </mxGraphModel>
  </diagram>
</mxfile>
